HIERARCHY
ROOT Hips
{
	OFFSET	0.00	0.00	0.00
	CHANNELS 6 Xposition Yposition Zposition Zrotation Xrotation Yrotation
	JOINT Spine
	{
		OFFSET	 0.00	0.01	 0.00
		CHANNELS 3 Zrotation Xrotation Yrotation
		JOINT Spine1
		{
			OFFSET	 0.00	 2.45913012437421	 0.00
			CHANNELS 3 Zrotation Xrotation Yrotation
            JOINT Neck
            {
                OFFSET	 0.00	 2.48462964506057	 0.00
                CHANNELS 3 Zrotation Xrotation Yrotation
                JOINT Head
                {
                    OFFSET	 0.00	 0.927524780924562	 0.00
                    CHANNELS 3 Zrotation Xrotation Yrotation
                    End Site 
                    {
                        OFFSET	 0.00	 1.14999962169752	 0.00
                    }
                }
            }
			JOINT LeftShoulder
			{
				OFFSET	 0.00	 2.48462964506057	 0.00
				CHANNELS 3 Zrotation Xrotation Yrotation
				JOINT LeftUpArm
				{
					OFFSET	 0.00	 1.24881979654096	 0.00
					CHANNELS 3 Zrotation Xrotation Yrotation
					JOINT LeftForeArm
					{
						OFFSET	 0.00	2.59758046908119	 0.00
						CHANNELS 3 Zrotation Xrotation Yrotation
						JOINT LeftHand
						{
							OFFSET	 0.00	2.45542024364365	 0.00
							CHANNELS 3 Zrotation Xrotation Yrotation
							JOINT LeftHandThumb 
							{
								OFFSET	 0.00	0.00	 0.00
								CHANNELS 3 Zrotation Xrotation Yrotation
								End Site
								{
									OFFSET	 0.00	0.00	1.00000003353624
								}
							}
							JOINT L_Wrist_End 
							{
								OFFSET	 0.00	0.99999967115358	 0.00
								CHANNELS 3 Zrotation Xrotation Yrotation
								End Site 
								{
									OFFSET	 0.00	 0.00	 0.00
								}
							}
						}
					}
				}
			}
			JOINT RightShoulder
			{
				OFFSET	 0.00	 2.48462964506057	 0.00
				CHANNELS 3 Zrotation Xrotation Yrotation
				JOINT RightUpArm
				{
					OFFSET	 0.00	 1.24881979654096	 0.00
					CHANNELS 3 Zrotation Xrotation Yrotation
					JOINT RightForeArm
					{
						OFFSET	 0.00	2.59758046908119	 0.00
						CHANNELS 3 Zrotation Xrotation Yrotation
						JOINT RightHand
						{
							OFFSET	 0.00	2.45542024364365	 0.00
							CHANNELS 3 Zrotation Xrotation Yrotation
							JOINT RightHandThumb 
							{
								OFFSET	 0.00	0.00	 0.00
								CHANNELS 3 Zrotation Xrotation Yrotation
								End Site
								{
									OFFSET	 0.00	0.00	1.00000003353624
								}
							}
							JOINT R_Wrist_End 
							{
								OFFSET	 0.00	0.99999967115358	 0.00
								CHANNELS 3 Zrotation Xrotation Yrotation
								End Site 
								{
									OFFSET	 0.00	 0.00	 0.00
								}
							}
						}
					}
				}
			}
		}
	}
	JOINT LeftUpLeg
	{
		OFFSET	 1.2719394002717	 0.00	 0.00
		CHANNELS 3 Zrotation Xrotation Yrotation
		JOINT LeftLowLeg
		{
			OFFSET	 0.00	-4.3429100912261	 0.00
			CHANNELS 3 Zrotation Xrotation Yrotation
			JOINT LeftFoot
			{
				OFFSET	 0.00	-4.48767017425826	 0.00
				CHANNELS 3 Zrotation Xrotation Yrotation
				JOINT LeftToeBase
                {
                    OFFSET	 0.00	0.00	 1.51507020887566
                    CHANNELS 3 Zrotation Xrotation Yrotation
                    End Site 
                    {
                        OFFSET	 0.00	0.00	 0.75000010571191
                    }
                }
			}
		}
	}
	JOINT RightUpLeg
	{
		OFFSET	 -1.2719393604653	 0.00	 0.00
		CHANNELS 3 Zrotation Xrotation Yrotation
		JOINT RightLowLeg
		{
			OFFSET	 0.00	-4.3429100912261	 0.00
			CHANNELS 3 Zrotation Xrotation Yrotation
			JOINT RightFoot
			{
				OFFSET	 0.00	-4.48767017425826	 0.00
				CHANNELS 3 Zrotation Xrotation Yrotation
				JOINT RightToeBase
                {
                    OFFSET	 0.00	0.00	 1.51507020887566
                    CHANNELS 3 Zrotation Xrotation Yrotation
                    End Site 
                    {
                        OFFSET	 0.00	0.00	 0.749999965609858
                    }
                }   
			}
		}
	}
}
MOTION 
Frames:	15 
Frame Time: 0.02 
 -0.48790000915527343 -1.9719400024414062 9.366699829101563 -164.933 73.8698 166.294 5.82384 -23.4607 0.209606 -2.56613 10.3058 1.53478 5.33859 26.9937 3.65883 -65.9343 -75.698 1032.06 -118.2918 0.00179613 10.9098 -47.3916 1.46105 4.44286 0.0 7.02924 0.0 2.84112 -15.762 30.391 0.0 0.0 0.0 0.0 0.0 0.0 120.3753 -5.30551 -4.57496 45.1667 -3.07461 -369.508 0.0 9.51203 0.0 5.33345 -9.32486 -25.9572 0.0 0.0 0.0 0.0 0.0 0.0 2.58569 -12.3812 -24.8391 0.0 5.76185 0.0 -2.35109 -4.2955 19.2779 0.0 -10.547359 0.0 7.00073 -8.86745 385.235 0.0 4.40156 0.0 3.41764 1.3751001 -31.0452 0.0 -19.598629 0.0 
  -0.4858110046386719 -1.9651899719238282 9.365440063476562 -165.021 73.8653 166.338 5.86391 -23.6414 0.306678 -2.69649 10.2233 1.60823 5.44562 27.5768 3.69208 -64.4403 -75.6406 1033.62 -118.8444 0.353654 11.3378 -45.7687 3.56349 5.33556 0.0 8.37005 0.0 6.14817 -13.6792 27.3006 0.0 0.0 0.0 0.0 0.0 0.0 120.786804 -5.12384 -4.66105 44.108 -1.74784 -370.31 0.0 11.1446 0.0 2.87465 -7.88311 -21.2666 0.0 0.0 0.0 0.0 0.0 0.0 2.56377 -12.4155 -24.747 0.0 5.73938 0.0 -2.36501 -4.2955 19.2252 0.0 -10.53525 0.0 6.96477 -8.86949 385.813 0.0 4.32222 0.0 3.54031 1.2860003 -31.5074 0.0 -19.5311 0.0 
  -0.48618598937988283 -1.9622599792480468 9.363569946289063 -164.721 73.9145 166.21 5.83791 -23.8991 0.243677 -2.7393 10.3433 1.59017 5.45924 27.9686 3.81097 -62.6082 -75.562 1035.4 -119.3182 0.719373 11.6419 -44.1629 5.65047 5.89391 0.0 10.0159 0.0 9.366 -12.1447 24.4954 0.0 0.0 0.0 0.0 0.0 0.0 121.01 -4.89665 -4.70865 43.3195 -0.122362 -370.29 0.0 12.2423 0.0 0.208076 -5.83441 -16.9568 0.0 0.0 0.0 0.0 0.0 0.0 2.60814 -12.3965 -24.9052 0.0 5.73382 0.0 -2.44386 -4.3603 19.1599 0.0 -10.51844 0.0 6.99976 -8.79348 385.662 0.0 4.28107 0.0 3.54761 1.2502003 -31.5222 0.0 -19.52083 0.0 
  -0.48547599792480467 -1.9588600158691407 9.362219848632812 -164.595 73.978 166.164 5.82218 -24.1662 0.234345 -2.82068 10.4781 1.62447 5.55791 28.3472 3.85524 -60.8064 -75.4687 1037.13 -119.7776 1.1427 11.9135 -42.5151 7.69196 6.2227 0.0 11.8401 0.0 12.2 -11.0021 22.0116 0.0 0.0 0.0 0.0 0.0 0.0 121.286896 -4.64463 -4.74849 42.3941 1.37181 -370.575 0.0 13.7475 0.0 -2.71242 -4.25558 -12.4738 0.0 0.0 0.0 0.0 0.0 0.0 2.6355 -12.3238 -24.7521 0.0 5.63169 0.0 -2.45842 -4.3274 18.9333 0.0 -10.51845 0.0 6.99932 -8.73998 385.606 0.0 4.27881 0.0 3.56999 1.1971998 -31.5314 0.0 -19.5157 0.0 
  -0.4845589828491211 -1.9575900268554687 9.361489868164062 -164.539 74.1027 166.107 5.80952 -24.4638 0.253359 -2.9259 10.7292 1.70151 5.71024 28.6208 3.84368 -58.9377 -75.3533 1038.92 -120.1016 1.57158 12.1745 -40.9724 9.79676 6.15216 0.0 13.7413 0.0 14.4028 -10.1934 20.3881 0.0 0.0 0.0 0.0 0.0 0.0 121.5372 -4.33705 -4.75272 41.4371 2.85181 -370.889 0.0 15.3988 0.0 -5.44172 -3.16325 -8.46837 0.0 0.0 0.0 0.0 0.0 0.0 2.60193 -12.2038 -25.0624 0.0 5.64816 0.0 -2.49161 -4.3719997 19.2004 0.0 -10.47139 0.0 6.97816 -8.62422 385.65 0.0 4.28513 0.0 3.59195 1.1533003 -31.5693 0.0 -19.51472 0.0 
  -0.48496601104736325 -1.9570700073242187 9.361199951171875 -164.306 74.3861 165.858 5.75937 -24.5808 0.257376 -2.98623 10.9122 1.78055 5.78722 28.9904 3.92837 -57.15 -75.2472 1040.51 -120.304504 2.01943 12.3606 -39.5696 11.8244 5.83029 0.0 15.6675 0.0 15.7835 -9.6488 19.1238 0.0 0.0 0.0 0.0 0.0 0.0 121.7037 -4.06166 -4.76702 40.5676 4.38332 -370.949 0.0 17.0152 0.0 -7.5365 -2.68267 -6.14012 0.0 0.0 0.0 0.0 0.0 0.0 2.6188 -11.8746 -25.0754 0.0 5.56554 0.0 -2.49591 -4.3460007 19.2203 0.0 -10.49648 0.0 6.97927 -8.34635 385.685 0.0 4.30239 0.0 3.58524 1.1343002 -31.6199 0.0 -19.49681 0.0 
  -0.4829710006713867 -1.9544700622558593 9.361190185546874 -164.173 74.4654 165.772 5.76651 -24.8274 0.278344 -3.07366 10.9757 1.81907 6.01415 29.3495 3.83106 -55.5305 -75.0984 1042.05 -120.3736 2.42328 12.3641 -38.3799 13.794 5.55557 0.0 17.5395 0.0 16.3757 -9.40432 17.9386 0.0 0.0 0.0 0.0 0.0 0.0 121.7673 -3.77795 -4.80501 39.8006 5.91313 -370.824 0.0 18.572 0.0 -8.79016 -2.38773 -3.65226 0.0 0.0 0.0 0.0 0.0 0.0 2.60589 -11.8257 -25.155 0.0 5.59421 0.0 -2.50423 -4.3463993 19.2349 0.0 -10.491301 0.0 6.97889 -8.28995 385.668 0.0 4.33238 0.0 3.61738 1.1117 -31.6349 0.0 -19.49766 0.0 
  -0.482140998840332 -1.9527699279785156 9.361710205078126 -163.979 74.6497 165.571 5.74544 -24.9595 0.290907 -3.12338 11.0022 1.86814 6.1984 29.7691 3.76345 -54.2069 -74.9608 1043.27 -120.3072 2.84374 12.2859 -37.4317 15.656 5.12223 0.0 19.3578 0.0 16.242 -9.28818 16.6986 0.0 0.0 0.0 0.0 0.0 0.0 121.7891 -3.47212 -4.83197 39.0506 7.42244 -370.657 0.0 20.1283 0.0 -9.45783 -2.24459 -3.81996 0.0 0.0 0.0 0.0 0.0 0.0 2.60537 -11.6488 -25.1576 0.0 5.60559 0.0 -2.53959 -4.3502007 19.2205 0.0 -10.48767 0.0 6.98781 -8.13364 385.718 0.0 4.38253 0.0 3.64304 1.1054001 -31.6785 0.0 -19.51642 0.0 
  -0.48186798095703126 -1.9512899780273438 9.362650146484375 -163.781 74.8401 165.34 5.67725 -25.0679 0.251456 -3.0622 11.0221 1.9205 6.21528 30.1316 3.82255 -52.8921 -74.7971 1044.39 -120.209 3.23194 12.1234 -36.6558 17.4526 4.71695 0.0 21.0562 0.0 15.8452 -8.96046 16.6059 0.0 0.0 0.0 0.0 0.0 0.0 121.7331 -3.17503 -4.89095 38.3473 8.96917 -370.527 0.0 21.6127 0.0 -9.51135 -2.6312 -4.20677 0.0 0.0 0.0 0.0 0.0 0.0 2.60784 -11.4643 -25.1649 0.0 5.62886 0.0 -2.53506 -4.3358994 19.2532 0.0 -10.4950905 0.0 7.00313 -7.98095 385.733 0.0 4.45123 0.0 3.66526 1.1164999 -31.6582 0.0 -19.51566 0.0 
  -0.4810060119628906 -1.9495399475097657 9.363590087890625 -163.608 74.9762 165.146 5.62244 -25.1941 0.221794 -3.00063 10.983 1.96748 6.22721 30.4907 3.85437 -51.6672 -74.6024 1045.34 -120.0758 3.66801 12.0417 -36.0171 19.1666 4.07419 0.0 22.7221 0.0 15.0373 -9.00732 16.4763 0.0 0.0 0.0 0.0 0.0 0.0 121.6008 -2.84435 -4.84968 37.8013 10.4261 -370.38 0.0 22.7712 0.0 -9.02632 -2.74356 -4.81522 0.0 0.0 0.0 0.0 0.0 0.0 2.60584 -11.3513 -25.1708 0.0 5.67904 0.0 -2.55414 -4.3395004 19.2596 0.0 -10.48462 0.0 7.03156 -7.88848 385.947 0.0 4.54187 0.0 3.72129 1.0925999 -31.8301 0.0 -19.527401 0.0 
  -0.4797119903564453 -1.9468699645996095 9.364650268554687 -163.515 75.0825 164.995 5.55522 -25.2738 0.193819 -2.89966 10.8406 2.02332 6.24205 30.8678 3.85415 -50.7807 -74.42 1045.96 -119.9393 4.04902 11.9906 -35.563 20.8324 3.29879 0.0 24.2172 0.0 14.4136 -8.82811 16.7351 0.0 0.0 0.0 0.0 0.0 0.0 121.4423 -2.55203 -4.88293 37.2789 11.8102 -370.345 0.0 23.9157 0.0 -8.2817 -2.74337 -5.30897 0.0 0.0 0.0 0.0 0.0 0.0 2.59056 -11.2787 -25.1511 0.0 5.74684 0.0 -2.55906 -4.3358 19.279 0.0 -10.50264 0.0 7.02782 -7.8234 385.902 0.0 4.58142 0.0 3.75319 1.1220999 -31.7218 0.0 -19.57979 0.0 
  -0.4809000015258789 -1.9452699279785157 9.3652099609375 -163.602 75.1868 164.936 5.3619 -25.358 0.115346 -2.64847 10.7001 2.18709 6.20518 31.2235 3.86807 -49.9789 -74.2127 1046.5 -119.8669 4.42823 11.9655 -35.1884 22.3851 2.62953 0.0 25.6562 0.0 13.9908 -8.68401 17.1163 0.0 0.0 0.0 0.0 0.0 0.0 121.226105 -2.27006 -4.8856 36.7708 13.1107 -370.658 0.0 24.9872 0.0 -7.77027 -2.68412 -5.61432 0.0 0.0 0.0 0.0 0.0 0.0 2.57401 -11.1762 -25.0068 0.0 5.76679 0.0 -2.57805 -4.3372 19.2635 0.0 -10.494511 0.0 7.02809 -7.78806 386.17 0.0 4.68231 0.0 3.80423 1.0749998 -31.8134 0.0 -19.561611 0.0 
  -0.4805680084228516 -1.9493600463867187 9.366530151367188 -163.271 75.3422 164.689 5.23167 -25.4625 -0.0312497 -2.46886 10.6157 2.18395 6.25494 31.572 3.80698 -49.3268 -74.0314 1046.98 -119.7736 4.73003 11.9405 -34.9437 23.8183 2.0934 0.0 27.015 0.0 13.74 -8.42766 16.8203 0.0 0.0 0.0 0.0 0.0 0.0 121.0522 -2.10207 -5.02594 36.2741 14.4145 -371.358 0.0 26.0421 0.0 -7.90219 -2.47008 -5.67779 0.0 0.0 0.0 0.0 0.0 0.0 2.59006 -11.0018 -25.107 0.0 5.78417 0.0 -2.54316 -4.3134003 19.3032 0.0 -10.5271 0.0 7.04926 -7.56628 386.013 0.0 4.62608 0.0 3.70582 1.1942997 -31.8305 0.0 -19.55771 0.0 
  -0.48096599578857424 -1.9473500061035156 9.367340087890625 -163.349 75.3984 164.671 5.10397 -25.482 -0.0740199 -2.30978 10.3636 2.28781 6.29452 31.9086 3.76007 -48.9947 -73.9165 1047.07 -119.6682 5.00597 12.0179 -34.8111 25.1513 1.66083 0.0 28.3651 0.0 14.1104 -8.15238 17.069 0.0 0.0 0.0 0.0 0.0 0.0 120.8682 -1.87438 -5.02916 35.9354 15.351 -371.518 0.0 27.3046 0.0 -7.57761 -2.51005 -6.28015 0.0 0.0 0.0 0.0 0.0 0.0 2.5666 -10.9652 -25.0487 0.0 5.82328 0.0 -2.53198 -4.2933006 19.3403 0.0 -10.549 0.0 7.04379 -7.57232 386.083 0.0 4.7033 0.0 3.73982 1.1871996 -31.7872 0.0 -19.60586 0.0 
  -0.4809049987792969 -1.947760009765625 9.367940063476562 -163.353 75.4309 164.636 5.02605 -25.5524 -0.112125 -2.19226 10.1748 2.3432 6.22801 32.1629 3.80312 -48.6801 -73.8075 1047.08 -119.597 5.20899 12.0427 -34.7298 26.272 1.49141 0.0 29.7632 0.0 14.7392 -7.96016 17.3397 0.0 0.0 0.0 0.0 0.0 0.0 120.7254 -1.68685 -5.1197 35.6615 16.2099 -371.425 0.0 28.5999 0.0 -7.77093 -1.74336 -3.80367 0.0 0.0 0.0 0.0 0.0 0.0 2.56165 -10.9278 -25.0267 0.0 5.831 0.0 -2.52173 -4.2836 19.3559 0.0 -10.5361595 0.0 7.03791 -7.54793 386.034 0.0 4.71562 0.0 3.72085 1.2124004 -31.7108 0.0 -19.59896 0.0 
